<svg width="3000" height="2001" viewBox="0 0 3000 2001" fill="none" xmlns="http://www.w3.org/2000/svg">
<rect width="3000" height="2000" fill="#1ED760"/>
<path d="M2628.01 1430.62C2667.61 1465.39 2708.8 1483.92 2750.77 1515.12C2792.75 1545.99 2835.52 1589.87 2822.05 1623.02C2808.59 1656.17 2738.5 1678.59 2691.77 1711.42C2645.44 1744.57 2622.47 1788.12 2588.41 1793.32C2553.96 1798.84 2508.42 1766.02 2470.01 1742.94C2431.2 1719.87 2399.92 1707.19 2362.69 1688.67C2325.47 1670.47 2282.7 1646.74 2255.38 1610.34C2228.05 1573.62 2215.78 1524.22 2239.93 1491.07C2263.69 1457.92 2323.49 1441.34 2375.37 1411.12C2426.85 1381.22 2470.41 1337.34 2510.8 1341.24C2551.19 1344.82 2588.81 1395.84 2628.01 1430.62Z" fill="#8A3FFC"/>
<path d="M519.893 151.149C562.833 166.105 615.357 181.997 644.112 221.725C673.249 261.454 678.617 325.487 655.997 371.292C633.76 417.096 583.536 444.673 552.865 498.423C522.193 552.173 510.692 632.098 474.269 676.033C437.847 720.436 376.121 727.914 323.213 706.414C270.305 684.914 225.449 633.968 194.777 576.478C163.723 518.988 146.087 454.955 140.719 390.455C135.352 325.954 142.253 260.987 165.64 208.638C189.41 156.29 230.049 116.562 273.373 102.072C317.079 87.5831 363.469 97.8658 403.342 110.485C443.598 122.638 476.953 136.66 519.893 151.149Z" fill="#8A3FFC"/>
<path d="M1656.85 1792.49C1679.49 1799.81 1707.19 1807.59 1722.35 1827.04C1737.71 1846.49 1740.54 1877.84 1728.62 1900.26C1716.89 1922.69 1690.41 1936.19 1674.23 1962.5C1658.06 1988.82 1654.83 1979.21 1635.62 2000.72C1615.12 2000.72 1589.12 2000.72 1561.5 2000.72C1533.88 2000.72 1505.12 2000.72 1485.41 2000.72C1469.04 1972.57 1459.74 1941.22 1456.91 1909.64C1454.08 1878.07 1457.72 1846.26 1470.05 1820.63C1482.58 1795.01 1504.01 1775.56 1526.86 1768.46C1549.9 1761.37 1574.36 1766.4 1595.39 1772.58C1616.62 1778.53 1634.21 1785.4 1656.85 1792.49Z" fill="#8A3FFC"/>
<path d="M288.866 1376.67C278.708 1405.94 267.915 1441.75 240.933 1461.35C213.951 1481.22 170.463 1484.87 139.354 1469.45C108.245 1454.29 89.5168 1420.05 53.0117 1399.14C16.5067 1378.24 29.8389 1374.05 1.09094e-05 1349.22C1.09094e-05 1322.72 1.09094e-05 1289.1 1.09094e-05 1253.4C1.09094e-05 1217.69 1.09094e-05 1180.5 1.09094e-05 1155.03C39.0445 1133.85 82.5332 1121.83 126.339 1118.17C170.145 1114.51 214.269 1119.22 249.822 1135.16C285.374 1151.37 312.356 1179.07 322.197 1208.61C332.037 1238.4 325.054 1270.03 316.483 1297.21C308.23 1324.65 298.707 1347.39 288.866 1376.67Z" fill="#8A3FFC"/>
<path d="M1001 1878.4C1001 2017.9 1032.11 1995.5 720 1995.5C452.106 1995.5 420.606 2037.44 420.606 1878.4C420.606 1719.92 547.357 1586.91 688.5 1586.91C829.642 1586.91 1001 1719.92 1001 1878.4Z" fill="#8A3FFC"/>
<path d="M2199.86 122.105C2199.86 -17.3953 2168.75 5.00098 2480.86 5.00098C2748.75 5.00098 2780.25 -36.9413 2780.25 122.105C2780.25 280.585 2653.5 413.595 2512.36 413.595C2371.22 413.595 2199.86 280.585 2199.86 122.105Z" fill="#8A3FFC"/>
<path d="M2722.2 735.288C2758.56 750.705 2795.17 772.693 2812.7 805.044C2830.23 837.142 2828.94 879.602 2809.35 909.931C2789.75 940.26 2752.11 958.457 2724.52 979.94C2696.94 1001.42 2679.66 1025.94 2655.69 1036.3C2631.71 1046.66 2601.29 1042.62 2565.45 1039.84C2529.61 1037.06 2488.36 1035.54 2463.35 1015.83C2438.09 995.862 2428.81 957.699 2441.95 927.37C2455.1 897.041 2490.68 874.8 2505.12 842.449C2519.3 809.846 2512.34 767.386 2527.03 742.617C2541.73 717.596 2578.08 710.519 2614.18 711.025C2650.53 711.53 2686.11 720.124 2722.2 735.288Z" fill="#8A3FFC"/>
</svg>
