<svg width="3000" height="2000" viewBox="0 0 3000 2000" fill="none" xmlns="http://www.w3.org/2000/svg">
<rect width="3000" height="2000" fill="#8A3FFC"/>
<path fill-rule="evenodd" clip-rule="evenodd" d="M0 1280L125 1310C250 1340 500 1400 750 1415C1000 1430 1250 1400 1500 1370C1750 1340 2000 1310 2250 1355C2500 1400 2750 1520 2875 1580L3000 1640V2000H2875C2750 2000 2500 2000 2250 2000C2000 2000 1750 2000 1500 2000C1250 2000 1000 2000 750 2000C500 2000 250 2000 125 2000H0V1280Z" fill="#0099FF"/>
</svg>
