<svg width="307" height="72" viewBox="0 0 307 72" fill="none" xmlns="http://www.w3.org/2000/svg">
<path d="M117.46 16V58H113.2V24.4L96.7 52.66H94.6L78.1 24.58V58H73.84V16H77.5L95.74 47.14L113.8 16H117.46ZM143.145 58.3C140.105 58.3 137.365 57.62 134.925 56.26C132.485 54.86 130.565 52.94 129.165 50.5C127.765 48.06 127.065 45.3 127.065 42.22C127.065 39.14 127.765 36.38 129.165 33.94C130.565 31.5 132.485 29.6 134.925 28.24C137.365 26.88 140.105 26.2 143.145 26.2C146.185 26.2 148.925 26.88 151.365 28.24C153.805 29.6 155.705 31.5 157.065 33.94C158.465 36.38 159.165 39.14 159.165 42.22C159.165 45.3 158.465 48.06 157.065 50.5C155.705 52.94 153.805 54.86 151.365 56.26C148.925 57.62 146.185 58.3 143.145 58.3ZM143.145 54.52C145.385 54.52 147.385 54.02 149.145 53.02C150.945 51.98 152.345 50.52 153.345 48.64C154.345 46.76 154.845 44.62 154.845 42.22C154.845 39.82 154.345 37.68 153.345 35.8C152.345 33.92 150.945 32.48 149.145 31.48C147.385 30.44 145.385 29.92 143.145 29.92C140.905 29.92 138.885 30.44 137.085 31.48C135.325 32.48 133.925 33.92 132.885 35.8C131.885 37.68 131.385 39.82 131.385 42.22C131.385 44.62 131.885 46.76 132.885 48.64C133.925 50.52 135.325 51.98 137.085 53.02C138.885 54.02 140.905 54.52 143.145 54.52ZM180.942 58.3C177.822 58.3 175.022 57.62 172.542 56.26C170.102 54.9 168.182 53 166.782 50.56C165.382 48.08 164.682 45.3 164.682 42.22C164.682 39.14 165.382 36.38 166.782 33.94C168.182 31.5 170.102 29.6 172.542 28.24C175.022 26.88 177.822 26.2 180.942 26.2C183.662 26.2 186.082 26.74 188.202 27.82C190.362 28.86 192.062 30.4 193.302 32.44L190.122 34.6C189.082 33.04 187.762 31.88 186.162 31.12C184.562 30.32 182.822 29.92 180.942 29.92C178.662 29.92 176.602 30.44 174.762 31.48C172.962 32.48 171.542 33.92 170.502 35.8C169.502 37.68 169.002 39.82 169.002 42.22C169.002 44.66 169.502 46.82 170.502 48.7C171.542 50.54 172.962 51.98 174.762 53.02C176.602 54.02 178.662 54.52 180.942 54.52C182.822 54.52 184.562 54.14 186.162 53.38C187.762 52.62 189.082 51.46 190.122 49.9L193.302 52.06C192.062 54.1 190.362 55.66 188.202 56.74C186.042 57.78 183.622 58.3 180.942 58.3ZM212.902 42.16L205.462 49V58H201.202V13.48H205.462V43.66L224.302 26.44H229.582L216.082 39.34L230.842 58H225.622L212.902 42.16ZM236.768 26.44H241.028V58H236.768V26.44ZM238.928 19.54C238.048 19.54 237.308 19.24 236.708 18.64C236.108 18.04 235.808 17.32 235.808 16.48C235.808 15.68 236.108 14.98 236.708 14.38C237.308 13.78 238.048 13.48 238.928 13.48C239.808 13.48 240.548 13.78 241.148 14.38C241.748 14.94 242.048 15.62 242.048 16.42C242.048 17.3 241.748 18.04 241.148 18.64C240.548 19.24 239.808 19.54 238.928 19.54ZM263.321 16.78C261.481 16.78 260.081 17.28 259.121 18.28C258.201 19.28 257.741 20.76 257.741 22.72V26.44H267.461V30.04H257.861V58H253.601V30.04H247.961V26.44H253.601V22.54C253.601 19.66 254.421 17.38 256.061 15.7C257.741 14.02 260.101 13.18 263.141 13.18C264.341 13.18 265.501 13.36 266.621 13.72C267.741 14.04 268.681 14.52 269.441 15.16L268.001 18.34C266.761 17.3 265.201 16.78 263.321 16.78ZM300.319 26.44L284.539 61.78C283.259 64.74 281.779 66.84 280.099 68.08C278.419 69.32 276.399 69.94 274.039 69.94C272.519 69.94 271.099 69.7 269.779 69.22C268.459 68.74 267.319 68.02 266.359 67.06L268.339 63.88C269.939 65.48 271.859 66.28 274.099 66.28C275.539 66.28 276.759 65.88 277.759 65.08C278.799 64.28 279.759 62.92 280.639 61L282.019 57.94L267.919 26.44H272.359L284.239 53.26L296.119 26.44H300.319Z" fill="white"/>
<ellipse cx="28.5" cy="36" rx="28.5" ry="29" fill="white"/>
<path d="M11 27C15.1723 32.6743 17 37.5809 17 44.5556C17 47.7668 14.7456 50.0174 14 53" stroke="black" stroke-width="3" stroke-linecap="round"/>
<path d="M21 19C27.2373 24.5035 31 35.252 31 43.6111C31 49.3188 29.6121 52.1637 28 57" stroke="black" stroke-width="3" stroke-linecap="round"/>
<path d="M34 14C42.675 25.451 49.7872 42.8192 41 56" stroke="black" stroke-width="3" stroke-linecap="round"/>
</svg>
